<svg xmlns="http://www.w3.org/2000/svg" viewBox="0 0 26 32" version="1.0" fit="" height="100%" width="100%" preserveAspectRatio="xMidYMid meet" style="pointer-events: none; display: inline-block;" fill="rgba(255,255,255,1)"><path d="M13.113 18.622c1.45 0 2.623-1.174 2.623-2.622s-1.174-2.622-2.623-2.622c-1.448 0-2.623 1.173-2.623 2.622s1.174 2.622 2.623 2.622zm0-4.195c.868 0 1.574.706 1.574 1.573s-.706 1.573-1.574 1.573S11.54 16.867 11.54 16s.705-1.573 1.573-1.573z"></path><path d="M26.122 17.627c.066-.534.104-1.076.104-1.627 0-7.242-5.87-13.113-13.112-13.113-4.974 0-9.3 2.77-11.523 6.848 0 .005-.004.01-.007.014-.042.076-.08.156-.12.234-.154.298-.3.6-.432.912-.02.047-.036.095-.055.143C.35 12.57 0 14.243 0 16c0 7.242 5.872 13.113 13.114 13.113 6.515 0 11.918-4.753 12.937-10.98.03-.168.052-.337.073-.506zm-.968-.915c-.004.072-.01.143-.016.214-.012.167-.028.334-.048.5l-.03.23c-.023.17-.05.34-.08.507-.012.06-.02.123-.034.184-.046.23-.096.458-.155.683v.005c-.058.222-.124.44-.194.657-.017.055-.037.11-.056.165-.056.167-.116.332-.18.495-.022.057-.044.115-.068.172-.072.176-.147.35-.226.52-.016.036-.03.072-.048.107-.1.214-.207.424-.32.63l-6.28-3.793c.277-.602.436-1.27.436-1.977 0-2.613-2.12-4.73-4.732-4.73h-.011l-.054.003c-.157.002-.312.01-.464.028l-.05.01c-.89.108-1.705.464-2.373.998L4.963 7.112c1.045-.96 2.26-1.734 3.593-2.28.702-.287 1.437-.51 2.197-.663l.033-.007c.178-.035.358-.067.538-.094.04-.007.08-.01.12-.016.153-.022.307-.042.463-.058.08-.008.164-.012.246-.02.116-.008.232-.02.35-.025.193-.01.388-.013.584-.014h.023c6.03 0 11.04 4.443 11.925 10.228.092.598.14 1.21.14 1.835 0 .238-.01.476-.024.71zm-2.827 7.062c-.13.154-.263.303-.4.45-.024.026-.05.05-.073.077-.125.132-.252.26-.382.386l-.088.083c-.133.125-.268.247-.407.366l-.075.066c-.158.134-.32.264-.484.39l-.015.01c-.355.27-.726.522-1.11.753l-3.48-6.453c.405-.282.762-.626 1.062-1.017l6.278 3.79c-.247.373-.515.728-.8 1.07l-.027.03zm-5.29 3.63c-.154.054-.31.105-.468.153-.06.018-.123.035-.184.052-.144.04-.29.078-.436.114l-.21.048c-.14.032-.284.06-.428.087l-.216.038c-.148.025-.296.045-.445.065l-.204.026c-.167.017-.334.032-.503.043-.052.003-.103.008-.155.01-.223.013-.448.02-.674.02-6.444 0-11.725-5.078-12.048-11.443-.01-.206-.016-.412-.016-.62 0-.204.006-.407.015-.61.008-.153.02-.306.034-.46.003-.044.005-.09.01-.133.118-1.183.41-2.316.846-3.374 0-.006.003-.01.004-.016.544-1.317 1.315-2.518 2.264-3.553L9.43 13.06c-.58.724-.948 1.62-1.02 2.602-.01.113-.018.225-.018.34v.011c0 2.613 2.118 4.732 4.73 4.732.626 0 1.22-.124 1.766-.343l3.48 6.457c-.386.186-.785.354-1.194.5-.045.017-.09.03-.137.047zM16.785 16c0 2.025-1.647 3.67-3.672 3.67-2.023 0-3.668-1.642-3.67-3.664.002-2.026 1.65-3.674 3.676-3.677 2.022.002 3.666 1.647 3.666 3.67z"></path></svg>