<svg xmlns="http://www.w3.org/2000/svg" viewBox="0 0 32 32" version="1.0" fit="" height="100%" width="100%" preserveAspectRatio="xMidYMid meet" style="pointer-events: none; display: inline-block;" fill="rgba(255,255,255,1)"><path d="M23.97 19.732h4.292v-8.53H3.738V19.2c0 5.593 4.535 10.128 10.13 10.128 5.413 0 9.823-4.25 10.1-9.596zm.027-7.464h3.2v6.397h-3.2v-6.398zm-10.13 15.994c-4.997 0-9.063-4.066-9.063-9.063v-6.932H22.93v6.93c0 5-4.066 9.064-9.063 9.064zM3.738 30.394h20.26v-1.066H3.737zM9.07 3.205h1.065v4.798H9.07V3.205zM17.6 3.205h1.065v4.798H17.6V3.205zM13.334 1.606H14.4v6.398h-1.066V1.607z"></path></svg>