<svg xmlns="http://www.w3.org/2000/svg" viewBox="0 0 15 32" version="1.0" fit="" height="100%" width="100%" preserveAspectRatio="xMidYMid meet" style="pointer-events: none; display: inline-block;" fill="rgba(255,255,255,1)"><path d="M6.82 6.034h1.048v4.196h-1.05V6.034z"></path><path d="M14.686 9.18c0-4.055-3.288-7.342-7.343-7.342C3.287 1.838 0 5.125 0 9.18c0 3.124 1.954 5.786 4.704 6.847V30.16H9.95v-3.654l1.59-1.59-1.59-1.59V21.26l2.638-2.638-2.598-2.598c2.745-1.063 4.696-3.723 4.696-6.843zM9.61 15.047l-.71.275v1.098l2.203 2.205L8.9 20.827v2.934l1.154 1.157L8.9 26.073v3.04H5.75V15.31l-.672-.26c-2.45-.945-4.032-3.247-4.032-5.867 0-3.47 2.823-6.294 6.294-6.294 3.47 0 6.294 2.822 6.294 6.293 0 2.616-1.58 4.918-4.026 5.865z"></path></svg>